<svg width="559" height="396" viewBox="0 0 559 396" fill="none" xmlns="http://www.w3.org/2000/svg">
    <mask id="mask0_93_505" style="mask-type:luminance" maskUnits="userSpaceOnUse" x="358" y="216" width="5" height="9">
        <path d="M358.467 216.131H362.457V224.766H358.467V216.131Z" fill="white"/>
    </mask>
    <g mask="url(#mask0_93_505)">
        <path d="M358.945 217.648V222.88C358.945 223.716 359.626 224.397 360.468 224.397C361.309 224.397 361.99 223.716 361.99 222.88V217.648C361.99 216.812 361.309 216.131 360.468 216.131C359.626 216.131 358.945 216.812 358.945 217.648Z" fill="#E0E0E0"/>
    </g>
    <path d="M349.485 222.859L353.179 226.553C353.771 227.145 354.737 227.145 355.329 226.553C355.922 225.961 355.922 224.994 355.329 224.402L351.636 220.708C351.038 220.111 350.077 220.111 349.485 220.708C348.887 221.301 348.887 222.262 349.485 222.859Z" fill="#E0E0E0"/>
    <mask id="mask1_93_505" style="mask-type:luminance" maskUnits="userSpaceOnUse" x="344" y="230" width="10" height="5">
        <path d="M344.586 230.085H353.147V234.075H344.586V230.085Z" fill="white"/>
    </mask>
    <g mask="url(#mask1_93_505)">
        <path d="M346.139 233.229H351.366C352.207 233.229 352.888 232.548 352.888 231.712C352.888 230.87 352.207 230.189 351.366 230.189H346.139C345.298 230.189 344.617 230.87 344.617 231.712C344.617 232.548 345.298 233.229 346.139 233.229Z" fill="#E0E0E0"/>
    </g>
    <path d="M374.863 230.122H369.637C368.795 230.122 368.115 230.803 368.115 231.644C368.115 232.486 368.795 233.166 369.637 233.166H374.863C375.705 233.166 376.386 232.486 376.386 231.644C376.386 230.803 375.705 230.122 374.863 230.122Z" fill="#E0E0E0"/>
    <path d="M369.32 220.661L365.626 224.355C365.029 224.948 365.029 225.914 365.626 226.506C366.219 227.098 367.18 227.098 367.772 226.506L371.471 222.812C372.063 222.215 372.063 221.254 371.471 220.661C370.879 220.064 369.912 220.064 369.32 220.661Z" fill="#E0E0E0"/>
    <mask id="mask2_93_505" style="mask-type:luminance" maskUnits="userSpaceOnUse" x="344" y="228" width="43" height="58">
        <path d="M344.617 228.434H386.407V285.737H344.617V228.434Z" fill="white"/>
    </mask>
    <g mask="url(#mask2_93_505)">
        <path d="M357.984 255.334C357.984 255.303 357.979 255.272 357.979 255.241L358.239 233.478C358.249 232.283 359.231 231.317 360.421 231.317H360.447C361.028 231.322 361.574 231.556 361.984 231.977C362.39 232.392 362.613 232.943 362.608 233.525L362.442 247.381V251.521C362.442 252.29 363.07 252.913 363.839 252.913C364.608 252.913 365.231 252.29 365.231 251.521V247.718C365.553 246.752 366.468 246.087 367.491 246.087H367.517C368.151 246.097 368.749 246.352 369.19 246.804C369.632 247.256 369.876 247.858 369.865 248.492L369.86 248.866C369.86 248.903 369.86 248.944 369.865 248.986V253.163C369.865 253.921 370.484 254.54 371.242 254.54C372.001 254.54 372.619 253.921 372.619 253.163V249.344C373.014 248.539 373.835 248.035 374.744 248.04C375.367 248.051 375.949 248.3 376.391 248.747C376.822 249.194 377.061 249.786 377.056 250.409L377.035 252.186V254.836C377.035 255.615 377.669 256.249 378.448 256.249C379.227 256.249 379.861 255.615 379.861 254.836V252.212C379.866 251.656 380.09 251.137 380.485 250.752C380.879 250.363 381.404 250.155 381.96 250.16C382.516 250.165 383.035 250.389 383.425 250.783C383.809 251.183 384.022 251.708 384.012 252.264L383.976 255.386L383.913 268.099C383.867 272.063 382.282 275.788 379.451 278.578C376.624 281.373 372.889 282.905 368.93 282.905C368.868 282.905 368.811 282.905 368.749 282.905C365.673 282.869 362.722 281.908 360.218 280.116C357.714 278.328 355.844 275.85 354.81 272.951L347.542 252.565C347.459 252.326 347.495 252.082 347.651 251.88C347.791 251.693 347.999 251.589 348.227 251.589C348.248 251.589 348.264 251.589 348.279 251.589C350.321 251.724 352.093 252.971 352.908 254.846L355.298 260.353C355.568 260.966 356.233 261.309 356.888 261.169C357.542 261.034 358.015 260.446 358.01 259.781L357.984 255.334ZM385.446 248.809C384.532 247.874 383.306 247.349 381.996 247.334C381.056 247.323 380.131 247.583 379.342 248.077C379.103 247.599 378.791 247.162 378.412 246.773C377.445 245.786 376.157 245.23 374.775 245.214C373.819 245.204 372.868 245.458 372.047 245.952C371.824 245.547 371.544 245.167 371.211 244.83C370.24 243.837 368.941 243.276 367.554 243.261C366.78 243.25 366.011 243.422 365.309 243.744L365.434 233.561C365.465 230.797 363.242 228.522 360.478 228.491C360.462 228.491 360.441 228.491 360.426 228.491C357.688 228.491 355.444 230.699 355.407 233.442L355.179 253.059C353.828 250.581 351.319 248.955 348.466 248.768C347.266 248.69 346.118 249.22 345.391 250.176C344.669 251.137 344.476 252.384 344.882 253.516L352.15 273.902C353.376 277.347 355.599 280.292 358.576 282.417C361.553 284.542 365.06 285.69 368.717 285.732C368.79 285.732 368.858 285.737 368.93 285.737C373.606 285.737 378.027 283.934 381.373 280.666C384.776 277.341 386.682 272.889 386.74 268.125L386.802 255.418L386.838 252.295C386.854 250.986 386.36 249.75 385.446 248.809Z" fill="#E0E0E0"/>
    </g>
    <mask id="mask3_93_505" style="mask-type:luminance" maskUnits="userSpaceOnUse" x="233" y="152" width="92" height="91">
        <path d="M233.767 152.344H324.376V242.949H233.767V152.344Z" fill="white"/>
    </mask>
    <g mask="url(#mask3_93_505)">
        <path d="M260.376 218.926C263.327 214.76 270.886 211.965 279.188 211.965C287.485 211.965 295.044 214.76 298 218.926C298.639 219.825 299.886 220.038 300.79 219.399C301.689 218.76 301.902 217.508 301.263 216.609C297.538 211.357 288.872 207.964 279.188 207.964C269.499 207.964 260.839 211.357 257.114 216.609C256.475 217.508 256.683 218.76 257.587 219.399C257.94 219.648 258.34 219.768 258.74 219.768C259.369 219.768 259.987 219.472 260.376 218.926ZM296.494 178.954C293.995 178.954 291.969 181.37 291.969 184.357C291.969 187.339 293.995 189.755 296.494 189.755C298.992 189.755 301.019 187.339 301.019 184.357C301.019 181.37 298.992 178.954 296.494 178.954ZM261.883 178.954C259.384 178.954 257.358 181.37 257.358 184.357C257.358 187.339 259.384 189.755 261.883 189.755C264.382 189.755 266.408 187.339 266.408 184.357C266.408 181.37 264.382 178.954 261.883 178.954ZM279.188 156.345C256.35 156.345 237.772 174.923 237.772 197.761C237.772 220.594 256.35 239.172 279.188 239.172C302.021 239.172 320.599 220.594 320.599 197.761C320.599 174.923 302.021 156.345 279.188 156.345ZM279.188 243.177C267.057 243.177 255.649 238.45 247.071 229.872C238.494 221.295 233.772 209.892 233.772 197.761C233.772 185.63 238.494 174.226 247.071 165.644C255.649 157.067 267.057 152.344 279.188 152.344C291.319 152.344 302.723 157.067 311.3 165.644C319.877 174.226 324.605 185.63 324.605 197.761C324.605 209.892 319.877 221.295 311.3 229.872C302.723 238.45 291.319 243.177 279.188 243.177Z" fill="#E0E0E0"/>
    </g>
    <path d="M58.5213 118.99H50.3544L37.1586 96.0481H36.9715C37.2313 100.111 37.3664 102.999 37.3664 104.714V118.99H31.6309V88.6709H39.7354L52.9105 111.384H53.0559C52.8481 107.436 52.7442 104.651 52.7442 103.03V88.6709H58.5213V118.99Z" fill="#E0E0E0"/>
    <path d="M80.3749 118.99L79.1488 115.831H78.9826C77.928 117.177 76.8318 118.112 75.6992 118.637C74.577 119.146 73.1068 119.405 71.2937 119.405C69.0597 119.405 67.3089 118.772 66.0361 117.494C64.7581 116.221 64.1243 114.413 64.1243 112.07C64.1243 109.607 64.9815 107.789 66.7011 106.625C68.4155 105.451 71.0131 104.796 74.4939 104.672L78.5046 104.547V103.529C78.5046 101.191 77.3045 100.017 74.9095 100.017C73.0496 100.017 70.8677 100.578 68.3636 101.7L66.2855 97.4193C68.9454 96.0217 71.9015 95.3204 75.1589 95.3204C78.2604 95.3204 80.645 96.001 82.3075 97.3569C83.97 98.7181 84.8012 100.775 84.8012 103.529V118.99H80.3749ZM78.5046 108.246L76.0733 108.329C74.229 108.386 72.8574 108.719 71.9587 109.327C71.0547 109.94 70.6079 110.864 70.6079 112.111C70.6079 113.888 71.6314 114.771 73.6835 114.771C75.1485 114.771 76.3226 114.356 77.1954 113.524C78.0682 112.683 78.5046 111.561 78.5046 110.158V108.246ZM72.021 91.0811C71.5898 91.0811 71.1742 91.2681 70.7741 91.6422C70.3845 92.0058 70.0988 92.5513 69.9221 93.2839H66.8466C66.9972 91.2889 67.5635 89.7251 68.5506 88.5874C69.5325 87.4548 70.8417 86.8834 72.4782 86.8834C73.0444 86.8834 73.6003 87.0028 74.1406 87.2366C74.6913 87.46 75.2316 87.7094 75.7615 87.9847C76.3018 88.2497 76.8266 88.4939 77.3409 88.7121C77.85 88.9355 78.3488 89.0446 78.8371 89.0446C79.2631 89.0446 79.6735 88.8679 80.0632 88.5043C80.4632 88.1458 80.7541 87.5899 80.936 86.8418H84.0323C83.8765 88.8523 83.2946 90.4265 82.2867 91.5591C81.2893 92.6812 79.9905 93.2423 78.4007 93.2423C77.8292 93.2423 77.2682 93.1332 76.7175 92.9098C76.1772 92.676 75.6369 92.4267 75.0966 92.1617C74.5666 91.9019 74.0471 91.6578 73.538 91.4344C73.0237 91.2006 72.5197 91.0811 72.021 91.0811Z" fill="#E0E0E0"/>
    <path d="M96.3448 107.353C96.3448 109.654 96.7188 111.395 97.4669 112.569C98.2254 113.733 99.4619 114.314 101.166 114.314C102.854 114.314 104.065 113.733 104.803 112.569C105.535 111.405 105.904 109.67 105.904 107.353C105.904 105.057 105.53 103.337 104.782 102.199C104.044 101.051 102.828 100.474 101.124 100.474C99.4307 100.474 98.2151 101.046 97.4669 102.178C96.7188 103.316 96.3448 105.041 96.3448 107.353ZM112.388 107.353C112.388 111.135 111.39 114.096 109.395 116.226C107.4 118.346 104.626 119.406 101.083 119.406C98.8489 119.406 96.8851 118.923 95.181 117.951C93.4874 116.969 92.1886 115.572 91.2742 113.753C90.3599 111.925 89.9027 109.795 89.9027 107.353C89.9027 103.571 90.8846 100.63 92.8536 98.521C94.833 96.4169 97.6176 95.3623 101.207 95.3623C103.421 95.3623 105.384 95.8507 107.088 96.817C108.793 97.7885 110.102 99.1808 111.016 100.994C111.93 102.797 112.388 104.916 112.388 107.353Z" fill="#E0E0E0"/>
    <path d="M150.05 118.99H143.712V105.441C143.712 102.106 142.47 100.433 139.992 100.433C138.215 100.433 136.937 101.035 136.147 102.241C135.358 103.435 134.963 105.378 134.963 108.08V118.99H128.645V86.7173H134.963V93.284C134.963 93.7984 134.911 95.0037 134.817 96.8999L134.672 98.7702H135.004C136.417 96.4999 138.651 95.3621 141.717 95.3621C144.444 95.3621 146.517 96.0998 147.93 97.5649C149.343 99.0351 150.05 101.134 150.05 103.861V118.99Z" fill="#E0E0E0"/>
    <path d="M171.272 118.99L170.046 115.831H169.88C168.826 117.177 167.729 118.112 166.597 118.637C165.475 119.146 164.004 119.406 162.191 119.406C159.957 119.406 158.207 118.772 156.934 117.494C155.656 116.221 155.022 114.413 155.022 112.07C155.022 109.608 155.879 107.789 157.599 106.625C159.313 105.451 161.911 104.797 165.391 104.672L169.402 104.547V103.529C169.402 101.191 168.202 100.017 165.807 100.017C163.947 100.017 161.765 100.578 159.261 101.7L157.183 97.4196C159.843 96.022 162.799 95.3207 166.056 95.3207C169.158 95.3207 171.543 96.0013 173.205 97.3572C174.868 98.7184 175.699 100.776 175.699 103.529V118.99H171.272ZM169.402 108.246L166.971 108.33C165.127 108.387 163.755 108.719 162.856 109.327C161.952 109.94 161.505 110.865 161.505 112.112C161.505 113.888 162.529 114.772 164.581 114.772C166.046 114.772 167.22 114.356 168.093 113.525C168.966 112.683 169.402 111.561 169.402 110.158V108.246ZM162.378 93.2426V92.6815C164.758 89.9281 166.389 87.85 167.262 86.4473H174.348V86.8837C173.626 87.6058 172.4 88.6812 170.67 90.1047C168.935 91.5178 167.579 92.5672 166.597 93.2426H162.378Z" fill="#E0E0E0"/>
    <path d="M214.651 118.99H208.312V105.441C208.312 103.779 208.011 102.532 207.419 101.7C206.821 100.859 205.881 100.433 204.593 100.433C202.816 100.433 201.538 101.025 200.748 102.199C199.959 103.379 199.564 105.337 199.564 108.08V118.99H193.246V95.7987H198.067L198.92 98.7704H199.273C199.979 97.6482 200.946 96.8066 202.182 96.2351C203.429 95.6532 204.832 95.3623 206.401 95.3623C209.102 95.3623 211.149 96.1 212.552 97.5651C213.949 99.0197 214.651 101.119 214.651 103.862V118.99Z" fill="#E0E0E0"/>
    <path d="M235.874 118.99L234.647 115.832H234.481C233.427 117.177 232.33 118.112 231.198 118.637C230.076 119.146 228.605 119.406 226.792 119.406C224.558 119.406 222.808 118.772 221.535 117.494C220.257 116.221 219.623 114.413 219.623 112.07C219.623 109.608 220.48 107.789 222.2 106.626C223.914 105.451 226.512 104.797 229.993 104.672L234.003 104.548V103.529C234.003 101.191 232.803 100.017 230.408 100.017C228.548 100.017 226.366 100.578 223.862 101.701L221.784 97.4197C224.444 96.0222 227.4 95.3208 230.658 95.3208C233.759 95.3208 236.144 96.0014 237.806 97.3573C239.469 98.7185 240.3 100.776 240.3 103.529V118.99H235.874ZM234.003 108.246L231.572 108.33C229.728 108.387 228.356 108.719 227.457 109.327C226.553 109.94 226.107 110.865 226.107 112.112C226.107 113.888 227.13 114.772 229.182 114.772C230.647 114.772 231.821 114.356 232.694 113.525C233.567 112.683 234.003 111.561 234.003 110.158V108.246Z" fill="#E0E0E0"/>
    <path d="M254.15 119.406C251.417 119.406 249.277 118.356 247.729 116.247C246.175 114.127 245.401 111.192 245.401 107.436C245.401 103.643 246.191 100.682 247.77 98.5624C249.35 96.4323 251.532 95.3621 254.316 95.3621C257.236 95.3621 259.46 96.4999 260.987 98.7702H261.195C260.873 97.0402 260.717 95.4972 260.717 94.1361V86.7173H267.076V118.99H262.213L260.987 115.977H260.717C259.288 118.263 257.101 119.406 254.15 119.406ZM256.374 114.356C257.995 114.356 259.179 113.893 259.927 112.964C260.675 112.023 261.081 110.423 261.153 108.163V107.477C261.153 104.984 260.769 103.207 260.01 102.137C259.247 101.056 258 100.516 256.27 100.516C254.857 100.516 253.755 101.113 252.966 102.303C252.186 103.498 251.802 105.233 251.802 107.519C251.802 109.805 252.197 111.519 252.986 112.652C253.776 113.79 254.903 114.356 256.374 114.356Z" fill="#E0E0E0"/>
    <path d="M288.405 118.99L287.178 115.832H287.012C285.958 117.177 284.861 118.112 283.729 118.637C282.607 119.146 281.136 119.406 279.323 119.406C277.089 119.406 275.339 118.772 274.066 117.494C272.788 116.221 272.154 114.413 272.154 112.07C272.154 109.608 273.011 107.789 274.731 106.626C276.445 105.451 279.043 104.797 282.524 104.672L286.534 104.548V103.529C286.534 101.191 285.334 100.017 282.939 100.017C281.079 100.017 278.897 100.578 276.393 101.701L274.315 97.4197C276.975 96.0222 279.931 95.3208 283.189 95.3208C286.29 95.3208 288.675 96.0014 290.337 97.3573C292 98.7185 292.831 100.776 292.831 103.529V118.99H288.405ZM286.534 108.246L284.103 108.33C282.259 108.387 280.887 108.719 279.988 109.327C279.084 109.94 278.638 110.865 278.638 112.112C278.638 113.888 279.661 114.772 281.713 114.772C283.178 114.772 284.352 114.356 285.225 113.525C286.098 112.683 286.534 111.561 286.534 110.158V108.246Z" fill="#E0E0E0"/>
    <path d="M325.091 118.99L323.865 115.832H323.699C322.644 117.177 321.548 118.112 320.416 118.637C319.293 119.146 317.823 119.406 316.01 119.406C313.776 119.406 312.025 118.772 310.753 117.494C309.475 116.221 308.841 114.413 308.841 112.07C308.841 109.608 309.698 107.789 311.418 106.626C313.132 105.451 315.73 104.797 319.21 104.672L323.221 104.548V103.529C323.221 101.191 322.021 100.017 319.626 100.017C317.766 100.017 315.584 100.578 313.08 101.701L311.002 97.4197C313.662 96.0222 316.618 95.3208 319.875 95.3208C322.977 95.3208 325.361 96.0014 327.024 97.3573C328.686 98.7185 329.518 100.776 329.518 103.529V118.99H325.091ZM323.221 108.246L320.79 108.33C318.945 108.387 317.574 108.719 316.675 109.327C315.771 109.94 315.324 110.865 315.324 112.112C315.324 113.888 316.348 114.772 318.4 114.772C319.865 114.772 321.039 114.356 321.912 113.525C322.785 112.683 323.221 111.561 323.221 110.158V108.246Z" fill="#E0E0E0"/>
    <path d="M345.633 114.439C347.238 114.439 348.407 113.982 349.145 113.068C349.893 112.153 350.298 110.548 350.371 108.246V107.478C350.371 104.984 349.987 103.207 349.228 102.137C348.464 101.056 347.233 100.516 345.529 100.516C342.547 100.516 341.061 102.854 341.061 107.519C341.061 109.847 341.425 111.587 342.163 112.735C342.911 113.873 344.064 114.439 345.633 114.439ZM343.368 119.406C340.625 119.406 338.474 118.356 336.926 116.247C335.388 114.143 334.619 111.208 334.619 107.436C334.619 103.654 335.409 100.698 336.988 98.5626C338.568 96.4325 340.734 95.3623 343.493 95.3623C344.958 95.3623 346.236 95.6428 347.316 96.1935C348.407 96.7494 349.374 97.6066 350.205 98.7704H350.371L350.932 95.7987H356.294V129.194H349.935V119.468C349.935 118.626 350.023 117.463 350.205 115.977H349.935C349.254 117.099 348.355 117.951 347.233 118.533C346.121 119.115 344.833 119.406 343.368 119.406Z" fill="#E0E0E0"/>
    <path d="M379.326 118.99L378.474 116.019H378.142C377.461 117.099 376.5 117.941 375.253 118.533C374.017 119.115 372.604 119.406 371.014 119.406C368.281 119.406 366.224 118.679 364.842 117.224C363.471 115.759 362.785 113.66 362.785 110.927V95.7988H369.102V109.348C369.102 111.026 369.398 112.278 369.996 113.109C370.588 113.941 371.539 114.356 372.843 114.356C374.614 114.356 375.887 113.769 376.667 112.59C377.456 111.416 377.851 109.452 377.851 106.709V95.7988H384.189V118.99H379.326Z" fill="#E0E0E0"/>
    <path d="M390.554 89.8136C390.554 87.7511 391.697 86.7173 393.982 86.7173C396.279 86.7173 397.432 87.7511 397.432 89.8136C397.432 90.8007 397.141 91.5592 396.559 92.0995C395.988 92.6398 395.131 92.91 393.982 92.91C391.697 92.91 390.554 91.8813 390.554 89.8136ZM397.141 118.99H390.824V95.7985H397.141V118.99Z" fill="#E0E0E0"/>
    <path d="M429.531 118.99L428.305 115.832H428.139C427.084 117.177 425.988 118.112 424.856 118.637C423.733 119.146 422.263 119.406 420.45 119.406C418.216 119.406 416.465 118.772 415.192 117.494C413.914 116.221 413.281 114.413 413.281 112.07C413.281 109.608 414.138 107.789 415.857 106.626C417.572 105.451 420.169 104.797 423.65 104.672L427.661 104.548V103.529C427.661 101.191 426.461 100.017 424.066 100.017C422.206 100.017 420.024 100.578 417.52 101.701L415.442 97.4197C418.102 96.0222 421.058 95.3208 424.315 95.3208C427.417 95.3208 429.801 96.0014 431.464 97.3573C433.126 98.7185 433.958 100.776 433.958 103.529V118.99H429.531ZM427.661 108.246L425.23 108.33C423.385 108.387 422.014 108.719 421.115 109.327C420.211 109.94 419.764 110.865 419.764 112.112C419.764 113.888 420.788 114.772 422.84 114.772C424.305 114.772 425.479 114.356 426.352 113.525C427.225 112.683 427.661 111.561 427.661 110.158V108.246Z" fill="#E0E0E0"/>
    <path d="M440.202 89.8136C440.202 87.7511 441.345 86.7173 443.631 86.7173C445.927 86.7173 447.08 87.7511 447.08 89.8136C447.08 90.8007 446.79 91.5592 446.208 92.0995C445.636 92.6398 444.779 92.91 443.631 92.91C441.345 92.91 440.202 91.8813 440.202 89.8136ZM446.79 118.99H440.472V95.7985H446.79V118.99Z" fill="#E0E0E0"/>
    <path d="M474.838 118.99H468.5V105.441C468.5 103.779 468.199 102.532 467.606 101.7C467.009 100.859 466.069 100.433 464.78 100.433C463.003 100.433 461.725 101.025 460.936 102.199C460.146 103.379 459.751 105.337 459.751 108.08V118.99H453.434V95.7987H458.255L459.107 98.7704H459.46C460.167 97.6482 461.133 96.8066 462.37 96.2351C463.616 95.6532 465.019 95.3623 466.588 95.3623C469.29 95.3623 471.337 96.1 472.739 97.5651C474.137 99.0197 474.838 101.119 474.838 103.862V118.99Z" fill="#E0E0E0"/>
    <path d="M488.684 119.406C485.951 119.406 483.811 118.356 482.263 116.247C480.709 114.127 479.935 111.192 479.935 107.436C479.935 103.643 480.725 100.682 482.304 98.5624C483.883 96.4323 486.065 95.3621 488.85 95.3621C491.77 95.3621 493.993 96.4999 495.521 98.7702H495.729C495.406 97.0402 495.251 95.4972 495.251 94.1361V86.7173H501.609V118.99H496.747L495.521 115.977H495.251C493.822 118.263 491.635 119.406 488.684 119.406ZM490.907 114.356C492.528 114.356 493.713 113.893 494.461 112.964C495.209 112.023 495.614 110.423 495.687 108.163V107.477C495.687 104.984 495.303 103.207 494.544 102.137C493.78 101.056 492.533 100.516 490.803 100.516C489.39 100.516 488.289 101.113 487.499 102.303C486.72 103.498 486.336 105.233 486.336 107.519C486.336 109.805 486.73 111.519 487.52 112.652C488.31 113.79 489.437 114.356 490.907 114.356Z" fill="#E0E0E0"/>
    <path d="M522.938 118.99L521.712 115.832H521.546C520.491 117.177 519.395 118.112 518.263 118.637C517.141 119.146 515.67 119.406 513.857 119.406C511.623 119.406 509.872 118.772 508.6 117.494C507.322 116.221 506.688 114.413 506.688 112.07C506.688 109.608 507.545 107.789 509.265 106.626C510.979 105.451 513.577 104.797 517.057 104.672L521.068 104.548V103.529C521.068 101.191 519.868 100.017 517.473 100.017C515.613 100.017 513.431 100.578 510.927 101.701L508.849 97.4197C511.509 96.0222 514.465 95.3208 517.722 95.3208C520.824 95.3208 523.209 96.0014 524.871 97.3573C526.533 98.7185 527.365 100.776 527.365 103.529V118.99H522.938ZM521.068 108.246L518.637 108.33C516.792 108.387 515.421 108.719 514.522 109.327C513.618 109.94 513.171 110.865 513.171 112.112C513.171 113.888 514.195 114.772 516.247 114.772C517.712 114.772 518.886 114.356 519.759 113.525C520.632 112.683 521.068 111.561 521.068 110.158V108.246Z" fill="#E0E0E0"/>
    <path d="M299.885 295.362H297.229C297.153 294.927 297.013 294.541 296.81 294.205C296.606 293.864 296.353 293.575 296.05 293.338C295.747 293.101 295.401 292.924 295.013 292.805C294.629 292.682 294.215 292.621 293.77 292.621C292.979 292.621 292.278 292.82 291.668 293.217C291.057 293.61 290.579 294.188 290.233 294.95C289.887 295.708 289.714 296.634 289.714 297.727C289.714 298.84 289.887 299.777 290.233 300.54C290.583 301.297 291.062 301.87 291.668 302.259C292.278 302.642 292.977 302.834 293.763 302.834C294.198 302.834 294.606 302.777 294.984 302.663C295.368 302.545 295.711 302.372 296.014 302.145C296.322 301.918 296.58 301.638 296.788 301.307C297.001 300.975 297.148 300.597 297.229 300.17L299.885 300.185C299.786 300.876 299.57 301.525 299.239 302.131C298.912 302.737 298.483 303.272 297.953 303.736C297.423 304.195 296.803 304.555 296.092 304.815C295.382 305.071 294.594 305.199 293.727 305.199C292.449 305.199 291.308 304.903 290.304 304.311C289.3 303.719 288.509 302.865 287.932 301.747C287.354 300.63 287.065 299.29 287.065 297.727C287.065 296.16 287.357 294.82 287.939 293.707C288.521 292.59 289.314 291.735 290.318 291.143C291.322 290.552 292.458 290.256 293.727 290.256C294.537 290.256 295.29 290.369 295.986 290.597C296.682 290.824 297.302 291.158 297.847 291.598C298.391 292.034 298.839 292.569 299.189 293.203C299.544 293.833 299.776 294.553 299.885 295.362ZM304.755 290.455V305H302.184V290.455H304.755ZM307.399 305V294.091H309.97V305H307.399ZM308.692 292.543C308.285 292.543 307.934 292.408 307.641 292.138C307.347 291.863 307.2 291.534 307.2 291.151C307.2 290.762 307.347 290.433 307.641 290.163C307.934 289.889 308.285 289.751 308.692 289.751C309.104 289.751 309.454 289.889 309.743 290.163C310.036 290.433 310.183 290.762 310.183 291.151C310.183 291.534 310.036 291.863 309.743 292.138C309.454 292.408 309.104 292.543 308.692 292.543ZM319.894 309.091V303.281H319.787C319.655 303.546 319.463 303.828 319.212 304.126C318.961 304.42 318.63 304.671 318.218 304.879C317.806 305.088 317.287 305.192 316.662 305.192C315.805 305.192 315.038 304.972 314.361 304.531C313.684 304.091 313.149 303.452 312.756 302.614C312.363 301.776 312.167 300.758 312.167 299.56C312.167 298.348 312.365 297.325 312.763 296.491C313.166 295.653 313.708 295.021 314.39 294.595C315.071 294.164 315.831 293.949 316.669 293.949C317.309 293.949 317.834 294.058 318.246 294.276C318.658 294.489 318.985 294.747 319.226 295.05C319.468 295.348 319.655 295.63 319.787 295.895H319.944V294.091H322.472V309.091H319.894ZM317.38 303.082C317.924 303.082 318.388 302.936 318.772 302.642C319.155 302.344 319.446 301.929 319.645 301.399C319.844 300.869 319.944 300.251 319.944 299.545C319.944 298.84 319.844 298.227 319.645 297.706C319.451 297.185 319.162 296.78 318.779 296.491C318.4 296.203 317.934 296.058 317.38 296.058C316.807 296.058 316.328 296.207 315.945 296.506C315.561 296.804 315.273 297.216 315.078 297.741C314.884 298.267 314.787 298.868 314.787 299.545C314.787 300.227 314.884 300.836 315.078 301.371C315.277 301.901 315.569 302.32 315.952 302.628C316.34 302.931 316.816 303.082 317.38 303.082ZM332.067 300.412V294.091H334.638V305H332.145V303.061H332.032C331.785 303.672 331.381 304.171 330.817 304.56C330.258 304.948 329.569 305.142 328.75 305.142C328.035 305.142 327.403 304.983 326.854 304.666C326.31 304.344 325.883 303.878 325.576 303.267C325.268 302.652 325.114 301.908 325.114 301.037V294.091H327.685V300.639C327.685 301.33 327.874 301.88 328.253 302.287C328.632 302.694 329.129 302.898 329.745 302.898C330.123 302.898 330.49 302.805 330.846 302.621C331.201 302.436 331.492 302.161 331.719 301.797C331.951 301.428 332.067 300.966 332.067 300.412ZM342.112 305.213C341.018 305.213 340.073 304.986 339.278 304.531C338.487 304.072 337.879 303.423 337.452 302.585C337.026 301.742 336.813 300.75 336.813 299.609C336.813 298.487 337.026 297.502 337.452 296.655C337.883 295.803 338.485 295.14 339.256 294.666C340.028 294.188 340.935 293.949 341.977 293.949C342.649 293.949 343.283 294.058 343.88 294.276C344.481 294.489 345.012 294.82 345.471 295.27C345.935 295.72 346.299 296.293 346.565 296.989C346.83 297.68 346.962 298.504 346.962 299.46V300.249H338.021V298.516H344.498C344.493 298.023 344.387 297.585 344.178 297.202C343.97 296.813 343.679 296.508 343.305 296.286C342.935 296.063 342.504 295.952 342.012 295.952C341.487 295.952 341.025 296.08 340.627 296.335C340.229 296.586 339.919 296.918 339.697 297.33C339.479 297.737 339.368 298.184 339.363 298.672V300.185C339.363 300.819 339.479 301.364 339.711 301.818C339.943 302.268 340.267 302.614 340.684 302.855C341.101 303.092 341.588 303.21 342.147 303.21C342.521 303.21 342.86 303.158 343.163 303.054C343.466 302.945 343.728 302.786 343.951 302.578C344.174 302.37 344.342 302.112 344.455 301.804L346.856 302.074C346.704 302.708 346.415 303.262 345.989 303.736C345.568 304.205 345.028 304.569 344.37 304.83C343.712 305.085 342.959 305.213 342.112 305.213ZM354.098 309.091V294.091H356.627V295.895H356.776C356.908 295.63 357.096 295.348 357.337 295.05C357.578 294.747 357.905 294.489 358.317 294.276C358.729 294.058 359.255 293.949 359.894 293.949C360.737 293.949 361.497 294.164 362.174 294.595C362.855 295.021 363.395 295.653 363.793 296.491C364.195 297.325 364.397 298.348 364.397 299.56C364.397 300.758 364.2 301.776 363.807 302.614C363.414 303.452 362.879 304.091 362.202 304.531C361.525 304.972 360.758 305.192 359.901 305.192C359.276 305.192 358.757 305.088 358.346 304.879C357.934 304.671 357.602 304.42 357.351 304.126C357.105 303.828 356.913 303.546 356.776 303.281H356.669V309.091H354.098ZM356.62 299.545C356.62 300.251 356.719 300.869 356.918 301.399C357.122 301.929 357.413 302.344 357.792 302.642C358.175 302.936 358.639 303.082 359.184 303.082C359.752 303.082 360.228 302.931 360.611 302.628C360.995 302.32 361.283 301.901 361.478 301.371C361.676 300.836 361.776 300.227 361.776 299.545C361.776 298.868 361.679 298.267 361.485 297.741C361.291 297.216 361.002 296.804 360.618 296.506C360.235 296.207 359.757 296.058 359.184 296.058C358.634 296.058 358.168 296.203 357.784 296.491C357.401 296.78 357.11 297.185 356.911 297.706C356.717 298.227 356.62 298.84 356.62 299.545ZM369.738 305.22C369.046 305.22 368.424 305.097 367.87 304.851C367.32 304.6 366.885 304.231 366.563 303.743C366.246 303.255 366.087 302.654 366.087 301.939C366.087 301.323 366.201 300.814 366.428 300.412C366.655 300.009 366.965 299.688 367.358 299.446C367.751 299.205 368.194 299.022 368.686 298.899C369.184 298.771 369.697 298.679 370.228 298.622C370.867 298.556 371.385 298.497 371.783 298.445C372.181 298.388 372.47 298.303 372.65 298.189C372.834 298.071 372.926 297.888 372.926 297.642V297.599C372.926 297.064 372.768 296.65 372.451 296.357C372.133 296.063 371.676 295.916 371.08 295.916C370.45 295.916 369.951 296.054 369.581 296.328C369.217 296.603 368.971 296.927 368.843 297.301L366.442 296.96C366.632 296.297 366.944 295.743 367.38 295.298C367.815 294.848 368.348 294.512 368.978 294.29C369.607 294.062 370.303 293.949 371.066 293.949C371.591 293.949 372.114 294.01 372.635 294.134C373.156 294.257 373.632 294.46 374.063 294.744C374.494 295.024 374.839 295.405 375.1 295.888C375.365 296.371 375.498 296.974 375.498 297.699V305H373.026V303.501H372.941C372.784 303.804 372.564 304.089 372.28 304.354C372.001 304.614 371.648 304.825 371.222 304.986C370.801 305.142 370.306 305.22 369.738 305.22ZM370.405 303.331C370.921 303.331 371.369 303.229 371.748 303.026C372.126 302.817 372.417 302.543 372.621 302.202C372.829 301.861 372.934 301.489 372.934 301.087V299.801C372.853 299.867 372.716 299.929 372.522 299.986C372.332 300.043 372.119 300.092 371.882 300.135C371.646 300.178 371.411 300.215 371.179 300.249C370.947 300.282 370.746 300.31 370.576 300.334C370.192 300.386 369.849 300.471 369.546 300.589C369.243 300.708 369.004 300.874 368.828 301.087C368.653 301.295 368.566 301.565 368.566 301.896C368.566 302.37 368.739 302.727 369.084 302.969C369.43 303.21 369.87 303.331 370.405 303.331ZM378.083 305V294.091H380.576V295.909H380.689C380.888 295.279 381.229 294.794 381.712 294.453C382.2 294.107 382.756 293.935 383.381 293.935C383.523 293.935 383.682 293.942 383.857 293.956C384.037 293.965 384.186 293.982 384.304 294.006V296.371C384.195 296.333 384.023 296.3 383.786 296.271C383.554 296.238 383.329 296.222 383.111 296.222C382.642 296.222 382.221 296.323 381.847 296.527C381.478 296.726 381.186 297.003 380.973 297.358C380.76 297.713 380.654 298.123 380.654 298.587V305H378.083ZM388.956 305.22C388.265 305.22 387.642 305.097 387.088 304.851C386.539 304.6 386.104 304.231 385.782 303.743C385.464 303.255 385.306 302.654 385.306 301.939C385.306 301.323 385.419 300.814 385.647 300.412C385.874 300.009 386.184 299.688 386.577 299.446C386.97 299.205 387.413 299.022 387.905 298.899C388.402 298.771 388.916 298.679 389.446 298.622C390.086 298.556 390.604 298.497 391.002 298.445C391.4 298.388 391.688 298.303 391.868 298.189C392.053 298.071 392.145 297.888 392.145 297.642V297.599C392.145 297.064 391.987 296.65 391.669 296.357C391.352 296.063 390.895 295.916 390.299 295.916C389.669 295.916 389.169 296.054 388.8 296.328C388.435 296.603 388.189 296.927 388.061 297.301L385.661 296.96C385.85 296.297 386.163 295.743 386.598 295.298C387.034 294.848 387.567 294.512 388.196 294.29C388.826 294.062 389.522 293.949 390.284 293.949C390.81 293.949 391.333 294.01 391.854 294.134C392.375 294.257 392.851 294.46 393.282 294.744C393.712 295.024 394.058 295.405 394.319 295.888C394.584 296.371 394.716 296.974 394.716 297.699V305H392.245V303.501H392.159C392.003 303.804 391.783 304.089 391.499 304.354C391.22 304.614 390.867 304.825 390.441 304.986C390.019 305.142 389.525 305.22 388.956 305.22ZM389.624 303.331C390.14 303.331 390.587 303.229 390.966 303.026C391.345 302.817 391.636 302.543 391.84 302.202C392.048 301.861 392.152 301.489 392.152 301.087V299.801C392.072 299.867 391.935 299.929 391.74 299.986C391.551 300.043 391.338 300.092 391.101 300.135C390.864 300.178 390.63 300.215 390.398 300.249C390.166 300.282 389.965 300.31 389.794 300.334C389.411 300.386 389.068 300.471 388.765 300.589C388.462 300.708 388.222 300.874 388.047 301.087C387.872 301.295 387.784 301.565 387.784 301.896C387.784 302.37 387.957 302.727 388.303 302.969C388.649 303.21 389.089 303.331 389.624 303.331ZM407.021 305.213C405.932 305.213 404.997 304.974 404.216 304.496C403.439 304.018 402.84 303.357 402.419 302.514C402.002 301.667 401.794 300.691 401.794 299.588C401.794 298.48 402.007 297.502 402.433 296.655C402.859 295.803 403.46 295.14 404.237 294.666C405.018 294.188 405.941 293.949 407.007 293.949C407.892 293.949 408.676 294.112 409.358 294.439C410.044 294.761 410.591 295.218 410.998 295.81C411.405 296.397 411.637 297.083 411.694 297.869H409.237C409.137 297.344 408.901 296.906 408.527 296.555C408.157 296.2 407.663 296.023 407.042 296.023C406.517 296.023 406.055 296.165 405.657 296.449C405.26 296.728 404.949 297.131 404.727 297.656C404.509 298.182 404.4 298.812 404.4 299.545C404.4 300.289 404.509 300.928 404.727 301.463C404.945 301.993 405.25 302.403 405.643 302.692C406.041 302.976 406.507 303.118 407.042 303.118C407.421 303.118 407.76 303.047 408.058 302.905C408.361 302.758 408.614 302.547 408.818 302.273C409.021 301.998 409.161 301.664 409.237 301.271H411.694C411.633 302.043 411.405 302.727 411.012 303.324C410.619 303.916 410.084 304.38 409.407 304.716C408.73 305.047 407.935 305.213 407.021 305.213ZM413.805 305V294.091H416.298V295.909H416.412C416.611 295.279 416.952 294.794 417.435 294.453C417.922 294.107 418.479 293.935 419.104 293.935C419.246 293.935 419.404 293.942 419.58 293.956C419.759 293.965 419.909 293.982 420.027 294.006V296.371C419.918 296.333 419.745 296.3 419.509 296.271C419.277 296.238 419.052 296.222 418.834 296.222C418.365 296.222 417.944 296.323 417.57 296.527C417.2 296.726 416.909 297.003 416.696 297.358C416.483 297.713 416.376 298.123 416.376 298.587V305H413.805ZM421.735 305V294.091H424.306V305H421.735ZM423.028 292.543C422.621 292.543 422.27 292.408 421.977 292.138C421.683 291.863 421.536 291.534 421.536 291.151C421.536 290.762 421.683 290.433 421.977 290.163C422.27 289.889 422.621 289.751 423.028 289.751C423.44 289.751 423.79 289.889 424.079 290.163C424.372 290.433 424.519 290.762 424.519 291.151C424.519 291.534 424.372 291.863 424.079 292.138C423.79 292.408 423.44 292.543 423.028 292.543ZM430.089 305.22C429.398 305.22 428.775 305.097 428.221 304.851C427.672 304.6 427.236 304.231 426.914 303.743C426.597 303.255 426.439 302.654 426.439 301.939C426.439 301.323 426.552 300.814 426.779 300.412C427.007 300.009 427.317 299.688 427.71 299.446C428.103 299.205 428.546 299.022 429.038 298.899C429.535 298.771 430.049 298.679 430.579 298.622C431.218 298.556 431.737 298.497 432.135 298.445C432.532 298.388 432.821 298.303 433.001 298.189C433.186 298.071 433.278 297.888 433.278 297.642V297.599C433.278 297.064 433.119 296.65 432.802 296.357C432.485 296.063 432.028 295.916 431.431 295.916C430.802 295.916 430.302 296.054 429.933 296.328C429.568 296.603 429.322 296.927 429.194 297.301L426.794 296.96C426.983 296.297 427.296 295.743 427.731 295.298C428.167 294.848 428.699 294.512 429.329 294.29C429.959 294.062 430.655 293.949 431.417 293.949C431.943 293.949 432.466 294.01 432.987 294.134C433.508 294.257 433.984 294.46 434.414 294.744C434.845 295.024 435.191 295.405 435.451 295.888C435.717 296.371 435.849 296.974 435.849 297.699V305H433.377V303.501H433.292C433.136 303.804 432.916 304.089 432.632 304.354C432.352 304.614 432 304.825 431.574 304.986C431.152 305.142 430.657 305.22 430.089 305.22ZM430.757 303.331C431.273 303.331 431.72 303.229 432.099 303.026C432.478 302.817 432.769 302.543 432.973 302.202C433.181 301.861 433.285 301.489 433.285 301.087V299.801C433.205 299.867 433.067 299.929 432.873 299.986C432.684 300.043 432.471 300.092 432.234 300.135C431.997 300.178 431.763 300.215 431.531 300.249C431.299 300.282 431.098 300.31 430.927 300.334C430.544 300.386 430.2 300.471 429.897 300.589C429.594 300.708 429.355 300.874 429.18 301.087C429.005 301.295 428.917 301.565 428.917 301.896C428.917 302.37 429.09 302.727 429.436 302.969C429.781 303.21 430.222 303.331 430.757 303.331ZM438.434 305V294.091H440.927V295.909H441.041C441.24 295.279 441.581 294.794 442.064 294.453C442.551 294.107 443.108 293.935 443.733 293.935C443.875 293.935 444.033 293.942 444.208 293.956C444.388 293.965 444.538 293.982 444.656 294.006V296.371C444.547 296.333 444.374 296.3 444.137 296.271C443.905 296.238 443.681 296.222 443.463 296.222C442.994 296.222 442.573 296.323 442.199 296.527C441.829 296.726 441.538 297.003 441.325 297.358C441.112 297.713 441.005 298.123 441.005 298.587V305H438.434Z" fill="#E0E0E0"/>
</svg>
